<svg xmlns="http://www.w3.org/2000/svg" width="224" height="140" viewBox="-56 26 112 70"><path d="M-10 74Q-17 84 -13 94L-8 94Q-10 82 -6 74Z" fill="#e2c78b" stroke="#302b26" stroke-width="1" stroke-linecap="round" stroke-linejoin="round"/><path d="M-6 74Q-11 84 -7 94L-2 94Q-4 82 -2 74Z" fill="#995341" stroke="#302b26" stroke-width="1" stroke-linecap="round" stroke-linejoin="round"/><path d="M-2 74Q-5 84 -1 94L4 94Q2 82 2 74Z" fill="#587582" stroke="#302b26" stroke-width="1" stroke-linecap="round" stroke-linejoin="round"/><path d="M2 74Q1 84 5 94L10 94Q8 82 6 74Z" fill="#737f50" stroke="#302b26" stroke-width="1" stroke-linecap="round" stroke-linejoin="round"/><path d="M6 74Q7 84 11 94L16 94Q14 82 10 74Z" fill="#dad6bc" stroke="#302b26" stroke-width="1" stroke-linecap="round" stroke-linejoin="round"/><g transform="translate(0 73) scale(0.45)"><path d="M0 7Q-15 4-12-5Q-5-4 0 7Q-7-5 0-13Q7-5 0 7Q5-4 12-5Q15 4 0 7Z" fill="#c9a05c" stroke="#302b26" stroke-width="1" stroke-linecap="round" stroke-linejoin="round"/><path d="M-11 8Q0 13 11 8" fill="none" stroke="#eed6a0" stroke-width="1" stroke-linecap="round" stroke-linejoin="round"/></g></svg>
