<svg xmlns="http://www.w3.org/2000/svg" width="224" height="140" viewBox="-56 26 112 70"><path d="M-37 79Q0 85 37 79L36 86Q0 92-36 86Z" fill="#333f3e" stroke="#302b26" stroke-width="1" stroke-linecap="round" stroke-linejoin="round"/><path d="M-33.5 80.42857142857143h7v6h-7Z" fill="#c9a05c" stroke="#302b26" stroke-width="0.65" stroke-linecap="round" stroke-linejoin="round"/><circle cx="-30" cy="85" r="1" fill="#eed6a0" stroke="#302b26" stroke-width=".65"/><path d="M-23.5 81.28571428571429h7v6h-7Z" fill="#c9a05c" stroke="#302b26" stroke-width="0.65" stroke-linecap="round" stroke-linejoin="round"/><circle cx="-20" cy="85" r="1" fill="#eed6a0" stroke="#302b26" stroke-width=".65"/><path d="M-13.5 82.14285714285714h7v6h-7Z" fill="#c9a05c" stroke="#302b26" stroke-width="0.65" stroke-linecap="round" stroke-linejoin="round"/><circle cx="-10" cy="85" r="1" fill="#eed6a0" stroke="#302b26" stroke-width=".65"/><path d="M-3.5 83h7v6h-7Z" fill="#c9a05c" stroke="#302b26" stroke-width="0.65" stroke-linecap="round" stroke-linejoin="round"/><circle cx="0" cy="85" r="1" fill="#eed6a0" stroke="#302b26" stroke-width=".65"/><path d="M6.5 82.14285714285714h7v6h-7Z" fill="#c9a05c" stroke="#302b26" stroke-width="0.65" stroke-linecap="round" stroke-linejoin="round"/><circle cx="10" cy="85" r="1" fill="#eed6a0" stroke="#302b26" stroke-width=".65"/><path d="M16.5 81.28571428571429h7v6h-7Z" fill="#c9a05c" stroke="#302b26" stroke-width="0.65" stroke-linecap="round" stroke-linejoin="round"/><circle cx="20" cy="85" r="1" fill="#eed6a0" stroke="#302b26" stroke-width=".65"/><path d="M26.5 80.42857142857143h7v6h-7Z" fill="#c9a05c" stroke="#302b26" stroke-width="0.65" stroke-linecap="round" stroke-linejoin="round"/><circle cx="30" cy="85" r="1" fill="#eed6a0" stroke="#302b26" stroke-width=".65"/><circle cx="0" cy="85" r="3.5" fill="#eed6a0" stroke="#302b26" stroke-width=".65"/></svg>
